<?xml version="1.0" standalone="no"?>
<!DOCTYPE svg PUBLIC "-//W3C//DTD SVG 20010904//EN"
 "http://www.w3.org/TR/2001/REC-SVG-20010904/DTD/svg10.dtd">
<svg version="1.0" xmlns="http://www.w3.org/2000/svg"
 width="3804.000000pt" height="3804.000000pt" viewBox="0 0 3804.000000 3804.000000"
 preserveAspectRatio="xMidYMid meet">
<metadata>
Created by potrace 1.14, written by Peter Selinger 2001-2017
</metadata>
<g transform="translate(0.000000,3804.000000) scale(0.100000,-0.100000)"
fill="#000000" stroke="none">
<path d="M33777 38023 c-1 -1 -79 -4 -172 -8 -94 -4 -204 -8 -245 -10 -41 -2
-147 -6 -235 -9 -88 -4 -205 -9 -260 -11 -103 -4 -291 -12 -495 -20 -63 -3
-167 -7 -230 -10 -63 -3 -178 -7 -255 -10 -77 -3 -189 -7 -250 -10 -60 -3
-168 -7 -240 -10 -71 -3 -182 -7 -245 -10 -63 -3 -178 -7 -255 -10 -77 -3
-189 -8 -250 -10 -60 -3 -171 -7 -245 -10 -74 -3 -182 -7 -240 -10 -58 -2
-168 -7 -245 -10 -77 -3 -194 -7 -260 -10 -66 -3 -176 -8 -245 -10 -69 -3
-181 -8 -250 -10 -122 -5 -205 -9 -495 -20 -77 -3 -187 -7 -245 -10 -58 -3
-168 -7 -245 -10 -77 -3 -183 -7 -235 -10 -52 -2 -169 -6 -260 -10 -91 -3
-203 -8 -250 -10 -47 -2 -152 -7 -235 -10 -317 -12 -327 -13 -516 -59 -101
-25 -233 -56 -294 -70 -144 -32 -144 -32 -260 -117 -292 -213 -255 -177 -405
-393 -8 -11 -38 -52 -66 -91 -50 -69 -61 -90 -70 -140 -2 -13 -16 -73 -30
-132 -14 -60 -27 -115 -29 -123 -2 -8 -19 -81 -39 -161 -19 -81 -38 -173 -41
-205 -3 -33 -7 -77 -10 -99 -5 -38 -10 -96 -21 -215 -2 -30 -7 -75 -9 -100 -3
-25 -7 -70 -10 -100 -3 -30 -8 -71 -10 -90 -3 -19 -7 -64 -10 -100 -6 -75 -14
-150 -20 -200 -2 -19 -7 -71 -10 -115 -3 -44 -8 -91 -10 -105 -2 -14 -7 -56
-10 -95 -3 -38 -8 -86 -10 -105 -2 -19 -7 -64 -10 -100 -8 -83 -12 -119 -20
-200 -4 -36 -8 -81 -10 -100 -4 -44 -13 -138 -21 -215 -3 -33 -7 -71 -9 -85
-2 -14 -6 -59 -10 -100 -3 -41 -8 -91 -10 -110 -3 -19 -7 -64 -10 -100 -3 -36
-8 -81 -10 -100 -3 -19 -7 -69 -10 -110 -3 -41 -8 -86 -10 -100 -2 -14 -7 -59
-11 -100 -3 -41 -8 -86 -9 -100 -1 -14 -6 -59 -9 -100 -4 -41 -9 -86 -11 -100
-2 -14 -7 -59 -10 -100 -4 -41 -9 -93 -11 -115 -6 -58 -13 -131 -19 -200 -3
-33 -7 -76 -10 -95 -2 -19 -7 -64 -10 -100 -3 -36 -8 -81 -10 -100 -2 -19 -7
-66 -10 -105 -3 -38 -8 -83 -10 -100 -2 -16 -7 -61 -10 -100 -3 -38 -8 -86
-10 -105 -2 -19 -7 -64 -10 -100 -3 -36 -7 -81 -10 -100 -2 -19 -7 -64 -10
-100 -3 -36 -8 -81 -10 -100 -2 -19 -7 -64 -10 -100 -3 -36 -8 -85 -10 -110
-2 -25 -7 -74 -10 -110 -4 -36 -8 -72 -10 -80 -2 -8 -6 -55 -10 -105 -3 -49
-8 -101 -10 -115 -2 -14 -6 -56 -10 -95 -3 -38 -8 -81 -10 -95 -2 -14 -6 -60
-10 -102 -3 -43 -8 -90 -10 -105 -2 -16 -6 -62 -10 -103 -4 -41 -9 -86 -10
-100 -2 -14 -6 -59 -9 -100 -4 -41 -11 -111 -16 -155 -5 -44 -12 -116 -16
-159 -3 -44 -7 -88 -9 -98 -2 -11 -7 -51 -10 -91 -12 -139 -13 -152 -19 -202
-3 -27 -8 -79 -11 -115 -3 -36 -8 -81 -10 -100 -3 -19 -7 -64 -10 -100 -3 -36
-7 -81 -10 -100 -2 -19 -7 -69 -11 -110 -3 -41 -7 -82 -9 -90 -1 -8 -6 -51 -9
-95 -4 -44 -9 -91 -11 -105 -2 -14 -6 -56 -9 -95 -4 -38 -8 -90 -11 -115 -2
-25 -7 -72 -10 -105 -3 -33 -7 -71 -10 -85 -2 -14 -7 -65 -10 -114 -4 -50 -8
-97 -10 -105 -1 -9 -6 -50 -9 -91 -4 -41 -9 -91 -11 -110 -2 -19 -7 -64 -10
-100 -7 -73 -11 -115 -21 -210 -11 -107 -11 -112 -19 -195 -3 -44 -8 -91 -10
-105 -2 -14 -6 -56 -10 -95 -3 -38 -8 -86 -10 -105 -2 -19 -7 -64 -10 -100 -3
-36 -8 -85 -11 -110 -2 -25 -7 -72 -9 -105 -3 -33 -7 -76 -10 -95 -2 -19 -7
-64 -10 -100 -3 -36 -8 -81 -10 -100 -3 -19 -7 -62 -10 -95 -3 -33 -7 -80 -10
-105 -2 -25 -7 -72 -10 -105 -3 -33 -8 -76 -10 -95 -2 -19 -7 -69 -10 -110 -3
-41 -8 -91 -10 -110 -8 -62 -16 -147 -30 -295 -3 -33 -8 -80 -10 -105 -3 -25
-7 -72 -10 -105 -4 -33 -8 -76 -10 -95 -2 -19 -7 -64 -10 -100 -3 -36 -8 -76
-10 -90 -2 -14 -7 -63 -10 -110 -4 -47 -8 -92 -10 -100 -2 -8 -6 -54 -9 -102
-4 -47 -8 -94 -10 -105 -2 -10 -7 -52 -10 -93 -4 -41 -9 -91 -11 -110 -5 -41
-15 -148 -20 -205 -13 -144 -16 -183 -21 -205 -2 -14 -6 -54 -9 -90 -2 -36 -7
-85 -10 -110 -8 -75 -20 -199 -30 -310 -3 -36 -8 -76 -10 -90 -2 -14 -7 -63
-11 -110 -3 -47 -7 -87 -9 -91 -2 -3 -6 -45 -9 -95 -4 -49 -8 -105 -11 -124
-2 -19 -7 -64 -10 -100 -3 -36 -8 -81 -10 -100 -8 -68 -15 -136 -20 -200 -3
-36 -8 -81 -10 -100 -3 -19 -7 -64 -10 -100 -3 -36 -8 -81 -10 -100 -6 -54
-21 -207 -30 -305 -3 -33 -8 -76 -10 -95 -2 -19 -9 -89 -16 -155 -6 -66 -13
-133 -14 -150 -2 -16 -7 -68 -10 -115 -4 -47 -8 -92 -10 -100 -2 -8 -6 -53
-10 -100 -3 -47 -8 -92 -10 -100 -2 -8 -7 -51 -11 -95 -3 -44 -7 -91 -9 -105
-1 -14 -6 -59 -9 -100 -4 -41 -9 -88 -11 -105 -2 -16 -7 -61 -10 -100 -6 -68
-10 -116 -20 -200 -2 -22 -7 -66 -10 -97 -3 -32 -8 -84 -11 -115 -3 -32 -7
-76 -9 -98 -6 -68 -16 -168 -20 -205 -4 -33 -9 -82 -20 -187 -3 -27 -7 -75
-10 -108 -7 -81 -15 -161 -20 -215 -3 -25 -7 -67 -10 -95 -3 -27 -7 -68 -9
-90 -11 -105 -21 -215 -30 -315 -4 -41 -9 -91 -11 -110 -3 -19 -7 -60 -10 -90
-7 -86 -16 -173 -20 -200 -2 -14 -7 -59 -10 -100 -3 -41 -8 -88 -9 -105 -2
-16 -7 -64 -10 -105 -7 -70 -11 -114 -21 -200 -2 -19 -7 -66 -10 -105 -6 -74
-12 -134 -20 -200 -2 -22 -7 -69 -10 -105 -7 -77 -15 -163 -30 -300 -14 -137
-15 -173 -5 -212 7 -24 14 -51 16 -61 2 -10 5 -26 8 -35 3 -9 7 -28 10 -42 2
-14 12 -54 21 -90 9 -36 19 -75 21 -86 2 -12 18 -79 34 -149 l31 -127 134
-187 135 -187 185 -133 186 -134 312 -74 c316 -74 354 -79 421 -53 11 4 136
34 276 67 l255 58 211 140 c117 77 320 212 453 301 261 175 248 171 216 64 -8
-25 -23 -79 -34 -120 -11 -41 -38 -140 -61 -220 -22 -80 -58 -208 -80 -285
-39 -141 -112 -405 -176 -635 -20 -69 -37 -132 -39 -140 -2 -8 -28 -103 -58
-210 -31 -107 -97 -343 -147 -525 -50 -181 -98 -355 -107 -385 -9 -30 -17 -59
-19 -65 -12 -51 -86 -308 -94 -329 -5 -14 -7 -26 -5 -26 3 0 -1 -16 -9 -35 -8
-19 -13 -35 -11 -35 3 0 0 -12 -6 -27 -6 -16 -12 -35 -14 -43 -7 -34 -27 -107
-35 -130 -5 -14 -12 -36 -14 -50 -3 -14 -33 -122 -66 -240 -34 -118 -63 -223
-65 -232 -5 -25 -73 -268 -85 -303 -5 -16 -23 -79 -39 -140 -16 -60 -42 -153
-56 -205 -15 -52 -29 -102 -31 -110 -2 -8 -12 -46 -23 -85 -11 -38 -52 -185
-91 -325 -39 -140 -92 -327 -116 -415 -65 -230 -125 -447 -129 -468 -2 -10
-15 -55 -28 -100 -58 -194 -87 -306 -152 -577 -2 -8 -10 -44 -18 -80 -8 -36
-20 -85 -26 -110 -6 -25 -20 -81 -31 -124 l-19 -79 64 -271 c36 -149 71 -294
78 -322 10 -39 47 -98 151 -242 76 -105 144 -193 151 -196 7 -2 36 -21 64 -41
l50 -36 -82 -114 c-45 -62 -88 -122 -95 -132 -7 -10 -40 -56 -73 -103 -195
-272 -353 -609 -438 -935 -29 -111 -102 -416 -106 -440 -1 -11 -17 -78 -34
-150 -37 -152 -66 -296 -76 -380 -4 -32 -9 -68 -12 -80 -9 -39 -11 -451 -3
-537 14 -134 20 -192 25 -208 2 -8 6 -32 10 -54 3 -21 40 -183 81 -360 42
-176 79 -332 81 -346 13 -66 58 -225 89 -315 19 -55 36 -107 38 -115 8 -29 74
-176 121 -270 85 -171 185 -326 389 -605 8 -11 47 -65 87 -120 138 -190 297
-365 464 -511 66 -57 280 -219 390 -295 28 -19 52 -37 55 -40 20 -23 278 -194
379 -252 84 -48 263 -132 365 -172 102 -40 314 -108 368 -119 13 -2 64 -14
113 -26 50 -12 97 -23 105 -25 8 -2 56 -13 105 -25 98 -23 166 -39 205 -46 14
-3 48 -11 75 -19 44 -12 94 -23 185 -40 14 -3 36 -7 50 -9 34 -7 81 -13 165
-23 137 -16 645 -7 675 12 3 2 29 6 59 9 66 7 312 62 596 132 33 8 69 16 80
18 11 3 70 16 130 31 61 15 115 28 120 29 6 2 35 10 65 19 30 9 57 16 60 15 3
-1 15 4 28 11 13 7 31 14 40 16 103 24 391 161 566 269 215 133 642 448 775
570 148 138 328 341 414 465 17 25 35 51 39 56 30 39 58 77 88 120 19 28 40
56 47 63 7 7 13 17 13 21 0 4 9 16 19 28 73 77 279 428 331 563 8 19 16 37 19
40 20 17 117 317 160 490 192 785 214 911 215 1235 1 332 -16 452 -133 935
-22 91 -42 176 -44 190 -29 156 -137 514 -192 635 -10 22 -26 60 -37 85 -11
25 -24 54 -30 64 -5 10 -28 53 -51 95 -67 127 -131 224 -300 460 -194 272
-157 223 -276 366 -82 100 -188 211 -305 320 -40 37 -199 160 -323 250 l-122
88 41 56 c77 106 87 126 107 211 17 71 41 176 56 240 2 8 13 56 25 105 30 125
30 127 36 154 3 12 11 51 19 85 8 34 17 79 21 101 3 22 12 66 19 98 7 31 11
57 8 57 -3 0 0 6 6 13 6 8 9 16 6 18 -2 3 1 25 6 49 14 58 16 70 33 160 8 41
40 203 71 360 62 314 60 304 75 376 6 28 13 64 16 80 3 16 7 36 9 44 2 8 7 30
10 47 3 18 14 79 26 135 11 57 22 119 25 138 3 19 8 38 10 41 2 4 6 24 10 44
3 21 8 47 10 59 3 11 7 32 10 46 3 14 11 57 19 95 8 39 17 86 20 105 3 19 10
51 15 70 5 19 11 53 15 75 3 22 19 103 35 180 15 77 31 154 33 170 3 17 15 77
27 135 12 58 23 116 26 130 2 14 7 36 10 50 3 14 8 36 10 50 3 14 18 93 35
175 16 83 32 161 34 175 3 14 12 59 20 100 18 88 23 116 30 150 3 14 7 36 10
50 3 14 12 59 20 100 8 41 16 84 19 95 2 11 32 162 66 335 34 173 63 322 65
330 17 83 55 273 100 500 31 151 58 289 61 305 2 17 18 95 34 175 16 80 32
160 35 178 3 18 12 64 20 102 8 38 17 84 20 102 3 18 8 40 10 48 2 8 6 27 9
42 3 15 12 63 20 105 21 101 25 122 31 155 3 14 16 82 29 150 14 68 27 134 30
148 2 14 14 70 25 125 11 55 56 282 100 505 44 223 83 419 86 435 3 17 8 44
11 60 3 17 10 48 15 70 5 22 12 54 15 70 2 17 11 62 19 100 8 39 17 85 20 103
3 18 12 65 21 105 8 39 18 83 20 97 3 14 14 72 25 129 12 57 23 114 25 125 2
12 6 32 9 46 27 140 35 179 39 200 2 14 31 160 65 325 33 165 65 325 70 355 6
30 16 78 21 105 6 28 13 64 15 80 3 17 9 48 15 70 8 32 68 334 86 435 3 14 16
81 30 150 14 69 28 139 31 155 2 17 20 104 38 195 19 91 36 179 39 195 3 17 8
41 11 55 7 29 43 212 50 253 3 15 12 59 20 97 16 77 25 124 30 155 2 17 14 77
41 200 2 11 11 56 19 100 8 44 20 103 25 130 6 28 13 61 15 75 3 14 7 36 10
50 3 14 12 59 20 100 8 41 17 86 20 100 3 14 7 37 10 53 3 15 12 60 21 100 8
39 17 83 19 97 2 14 18 95 35 180 18 85 34 166 37 180 2 14 26 138 54 275 27
138 51 259 53 270 2 11 16 79 30 150 14 72 28 141 31 155 3 14 11 59 20 100 8
41 16 86 19 100 2 14 9 46 15 73 6 26 14 64 17 85 5 30 39 202 59 296 3 10
-20 122 -51 250 -30 127 -63 271 -74 319 -11 48 -31 104 -45 125 -24 37 -34
51 -175 246 -41 57 -88 112 -105 124 -85 58 -181 126 -185 131 -14 18 -160
111 -181 115 -13 3 -44 10 -69 17 -25 6 -52 12 -60 14 -62 13 -412 97 -437
104 -27 8 -72 0 -239 -40 -113 -27 -216 -51 -228 -54 -120 -25 -214 -54 -281
-85 -84 -40 -274 -131 -560 -270 -173 -84 -330 -159 -600 -290 -82 -39 -190
-92 -239 -116 -50 -23 -91 -42 -93 -41 -1 2 70 165 157 362 179 403 169 379
204 458 14 32 26 59 26 61 0 2 18 43 40 90 22 47 40 88 40 90 0 3 13 33 29 68
24 52 86 191 166 373 7 17 24 55 38 85 20 44 227 511 319 720 11 25 25 59 33
75 7 17 40 91 73 165 33 74 71 160 85 190 13 30 84 190 157 355 73 165 142
320 153 345 11 25 21 47 22 50 6 16 283 642 336 758 16 34 29 64 29 67 0 3 18
44 40 91 22 47 40 87 40 89 0 2 14 34 32 72 18 37 33 73 34 78 2 8 108 245
169 379 8 17 109 247 226 511 116 264 224 508 240 542 16 34 29 64 29 67 0 2
15 37 34 78 18 40 75 168 126 283 51 116 100 228 110 250 10 22 46 103 80 180
34 77 75 168 91 203 16 34 29 64 29 67 0 2 16 40 36 82 53 116 60 132 97 219
19 43 44 99 55 124 12 25 82 185 157 355 75 171 150 338 166 373 16 35 29 65
29 67 0 2 14 34 32 72 18 37 33 70 33 73 1 3 8 21 17 40 8 19 94 213 190 430
97 217 280 631 408 920 128 289 245 553 261 588 16 35 29 65 29 67 0 2 18 43
41 92 49 106 58 127 99 223 17 41 37 89 45 105 7 17 20 64 29 105 8 41 36 161
61 265 26 105 49 204 53 220 11 57 10 63 -38 260 -17 72 -47 197 -67 279 -35
145 -37 152 -97 234 -33 46 -79 110 -100 141 -88 125 -109 146 -276 267 -93
68 -178 128 -188 133 -17 9 -161 48 -212 57 -14 3 -51 12 -83 20 -32 8 -77 19
-100 24 -37 8 -108 25 -193 47 -24 6 -292 12 -297 6z"/>
<path d="M13478 34185 c-2 -2 -70 -6 -153 -10 -157 -7 -169 -8 -330 -20 -137
-9 -271 -22 -325 -30 -14 -3 -56 -7 -95 -10 -38 -4 -72 -8 -75 -10 -3 -2 -34
-6 -70 -10 -36 -3 -72 -8 -80 -10 -8 -2 -35 -7 -60 -10 -38 -5 -98 -15 -195
-31 -118 -19 -501 -100 -514 -109 -4 -2 -26 -6 -51 -10 -25 -4 -47 -8 -50 -10
-3 -2 -113 -28 -245 -59 -132 -31 -283 -68 -335 -81 -52 -13 -106 -26 -120
-29 -14 -3 -68 -16 -120 -31 -52 -14 -106 -28 -120 -31 -14 -3 -49 -12 -79
-21 -29 -8 -59 -16 -65 -17 -6 -2 -31 -8 -56 -16 -237 -68 -408 -119 -440
-131 -14 -5 -34 -11 -45 -14 -57 -12 -688 -231 -845 -292 -35 -14 -69 -26 -75
-28 -5 -1 -23 -7 -40 -14 -48 -19 -183 -72 -425 -166 -886 -343 -1301 -532
-1630 -743 -93 -60 -1414 -732 -1438 -732 -5 0 -15 -6 -21 -14 -7 -8 -24 -17
-39 -21 -15 -4 -35 -14 -44 -22 -10 -9 -18 -13 -18 -8 0 4 -6 3 -12 -3 -13
-10 -340 -176 -1368 -693 -507 -255 -518 -262 -698 -392 l-183 -132 -134 -189
c-74 -104 -135 -194 -136 -200 -1 -18 -7 -48 -18 -91 -6 -22 -19 -78 -30 -125
-11 -47 -32 -134 -46 -194 -30 -124 -34 -139 -41 -181 -5 -27 19 -158 70 -380
8 -33 23 -103 35 -155 24 -109 83 -375 111 -500 28 -124 120 -542 124 -565 2
-11 11 -50 20 -86 8 -37 17 -78 20 -90 2 -13 11 -54 20 -90 8 -37 17 -78 20
-90 2 -13 11 -54 20 -90 8 -37 17 -78 20 -90 6 -35 62 -287 91 -414 8 -33 16
-71 19 -85 2 -14 26 -119 51 -235 26 -115 56 -250 67 -300 10 -49 21 -99 24
-110 3 -11 7 -31 10 -45 3 -14 46 -207 95 -430 50 -223 92 -414 95 -425 7 -39
13 -66 59 -275 20 -91 41 -183 47 -205 5 -22 12 -51 15 -65 2 -14 20 -97 40
-185 19 -88 37 -169 39 -180 2 -11 15 -69 29 -130 14 -60 39 -173 56 -250 16
-77 39 -180 50 -230 11 -49 22 -99 24 -110 3 -11 36 -162 75 -335 39 -173 72
-326 75 -340 3 -14 14 -65 25 -115 23 -105 74 -331 105 -475 2 -8 20 -89 40
-180 48 -211 51 -225 63 -285 6 -27 29 -131 51 -230 22 -99 42 -191 45 -205 8
-42 66 -301 81 -365 8 -33 26 -114 40 -180 14 -66 33 -151 41 -190 9 -38 22
-97 29 -130 27 -122 56 -251 65 -290 8 -33 54 -239 74 -335 3 -14 17 -77 31
-140 14 -63 27 -124 29 -135 2 -11 11 -50 20 -86 8 -37 17 -78 20 -90 2 -13
11 -54 20 -90 8 -37 17 -78 20 -90 2 -13 27 -127 56 -254 50 -224 55 -248 64
-290 2 -11 16 -73 30 -137 14 -65 38 -171 51 -235 14 -65 30 -136 36 -158 5
-22 12 -50 14 -63 2 -13 6 -31 9 -40 3 -9 8 -30 11 -47 7 -41 9 -54 40 -185
14 -63 29 -126 31 -140 3 -14 11 -53 19 -86 8 -34 16 -73 19 -85 3 -13 7 -33
9 -44 42 -184 68 -304 72 -322 6 -29 4 -21 65 -297 28 -127 68 -310 90 -406
59 -265 348 -1571 354 -1600 5 -26 52 -237 88 -395 11 -49 21 -97 23 -105 12
-56 73 -331 95 -430 26 -116 80 -360 86 -388 3 -13 41 -186 85 -385 44 -199
85 -382 90 -407 5 -25 12 -56 15 -70 3 -14 19 -86 35 -160 16 -74 32 -146 36
-160 9 -36 9 -34 36 -165 14 -66 40 -183 57 -260 18 -77 34 -149 36 -160 4
-25 50 -230 69 -310 14 -59 83 -371 91 -410 7 -37 12 -60 24 -110 6 -27 14
-61 16 -75 3 -14 9 -41 14 -60 5 -19 11 -46 14 -60 4 -21 69 -318 81 -370 6
-25 44 -199 66 -300 24 -110 22 -104 43 -191 8 -37 17 -78 20 -90 2 -13 9 -44
15 -69 5 -25 12 -56 15 -70 15 -74 38 -180 48 -215 5 -22 12 -51 15 -65 2 -14
20 -95 39 -180 19 -85 36 -164 39 -175 2 -11 8 -40 14 -65 5 -25 17 -76 25
-115 8 -38 21 -99 30 -135 8 -36 18 -80 21 -99 3 -19 8 -37 10 -41 2 -4 7 -20
10 -36 11 -60 15 -82 40 -189 15 -60 28 -123 31 -140 3 -16 15 -68 25 -115 11
-47 29 -128 40 -180 24 -111 21 -100 48 -215 11 -49 23 -101 25 -115 2 -14 16
-77 31 -140 14 -63 29 -126 31 -140 3 -14 14 -65 25 -115 12 -49 22 -97 24
-105 17 -82 79 -363 95 -430 11 -47 45 -200 75 -340 31 -140 63 -284 72 -320
8 -36 17 -76 19 -90 2 -14 8 -43 14 -65 16 -67 60 -263 92 -410 17 -77 34
-156 38 -175 9 -40 29 -133 36 -169 3 -12 12 -53 20 -90 9 -36 18 -77 21 -91
2 -14 20 -94 39 -178 18 -84 36 -163 38 -175 2 -12 12 -53 21 -92 9 -38 19
-79 21 -90 9 -45 14 -67 48 -224 21 -91 38 -167 40 -170 2 -3 7 -28 10 -55 4
-27 9 -53 12 -57 2 -4 13 -49 24 -101 11 -51 28 -131 39 -178 10 -47 30 -138
44 -202 15 -64 29 -127 32 -140 3 -13 11 -52 19 -88 7 -36 28 -130 46 -210 38
-173 35 -159 43 -190 4 -14 56 -252 117 -530 127 -583 131 -599 211 -936 16
-71 32 -140 35 -154 3 -14 17 -74 32 -135 30 -119 27 -114 233 -391 68 -92 74
-97 289 -248 30 -21 72 -52 93 -69 36 -28 160 -64 402 -117 22 -5 97 -22 167
-38 l128 -30 122 30 c68 16 130 31 138 33 107 24 202 47 230 55 19 5 49 11 65
14 49 9 64 14 685 241 327 119 642 234 700 255 164 59 413 150 430 157 8 3 20
7 25 9 6 1 73 26 150 54 77 29 187 69 245 90 207 75 447 162 540 197 52 19
100 36 105 38 6 1 24 7 40 14 37 15 466 172 480 175 6 2 21 7 35 13 14 5 122
45 240 87 118 43 224 81 235 86 26 11 247 91 260 94 6 1 27 10 49 19 21 9 41
17 44 17 3 0 78 27 166 59 276 102 565 207 731 266 88 32 169 61 180 66 11 5
65 25 120 44 55 20 123 44 150 54 28 11 84 31 125 46 41 15 82 29 90 32 8 4
17 7 20 8 3 1 12 5 20 8 8 3 67 25 130 47 121 44 282 102 490 179 85 31 145
60 187 91 34 25 118 86 187 135 76 54 137 106 154 130 15 22 29 42 32 45 3 3
49 67 103 142 l98 138 30 121 c51 206 110 462 116 497 3 19 0 55 -7 80 -6 26
-13 54 -15 62 -2 8 -8 33 -13 55 -6 22 -13 51 -15 65 -3 14 -10 45 -17 70 -7
25 -14 54 -16 65 -13 70 -72 298 -84 330 -7 17 -38 107 -70 200 -32 94 -97
283 -145 420 -48 138 -93 268 -100 290 -7 22 -54 159 -105 305 -50 146 -98
285 -106 310 -8 25 -19 54 -24 65 -4 11 -11 29 -13 40 -3 11 -24 74 -47 140
-78 223 -289 837 -365 1060 -26 77 -53 154 -61 172 -8 17 -14 34 -14 37 0 8
-108 325 -120 351 -5 11 -23 65 -40 120 -17 55 -35 109 -40 120 -9 20 -108
305 -141 405 -10 30 -32 96 -49 145 -18 50 -56 160 -85 245 -30 85 -95 274
-145 420 -50 146 -98 283 -105 305 -7 22 -54 159 -105 305 -50 146 -102 297
-115 335 -13 39 -40 117 -60 175 -47 132 -195 563 -285 825 -37 110 -109 319
-160 465 -50 146 -100 290 -110 320 -10 30 -37 109 -60 175 -23 66 -43 125
-44 130 -1 6 -4 15 -7 20 -5 8 -89 254 -94 275 -1 3 -5 12 -8 20 -7 16 -178
510 -207 600 -10 30 -37 109 -60 175 -23 66 -86 248 -140 405 -54 157 -117
339 -140 405 -40 114 -68 198 -74 220 -2 6 -7 21 -13 35 -23 56 -25 54 71 82
50 14 183 56 296 92 113 37 210 68 215 70 6 2 17 5 25 8 58 21 176 60 192 63
10 2 22 6 27 10 5 3 72 27 148 54 157 55 449 163 568 211 44 18 85 33 90 34 6
2 21 8 35 14 50 23 516 215 548 226 17 6 32 14 32 18 0 5 7 8 14 8 14 0 344
146 676 300 289 133 591 300 877 484 124 79 320 213 358 244 6 4 66 48 135 97
275 196 475 349 670 514 69 58 127 108 130 111 3 3 48 43 100 90 234 210 550
530 760 770 36 41 81 92 101 115 88 100 302 366 394 490 16 22 33 45 38 50 17
20 300 413 389 540 91 130 288 428 323 487 5 10 45 76 88 148 92 153 297 559
297 587 0 3 7 20 15 39 34 77 45 104 84 213 101 276 193 599 276 971 4 19 54
229 61 255 2 11 9 38 13 60 5 22 21 92 35 155 15 63 29 129 32 145 3 17 9 48
14 71 5 22 12 58 15 80 2 21 7 50 10 64 3 14 7 39 10 55 4 31 13 91 20 135 8
46 26 175 30 215 21 183 23 200 30 275 3 36 7 85 10 110 3 40 9 126 21 320 4
73 4 666 -1 755 -8 167 -16 282 -25 378 -6 56 -13 127 -15 157 -9 92 -16 164
-20 190 -2 14 -7 48 -10 75 -4 28 -8 61 -10 75 -2 14 -7 48 -10 75 -4 28 -22
142 -41 255 -29 172 -50 282 -110 570 -3 14 -23 102 -45 195 -22 94 -42 179
-44 190 -3 11 -16 70 -31 130 -14 61 -28 117 -29 126 -27 139 -147 595 -232
879 -30 102 -56 190 -58 195 -1 6 -5 17 -8 25 -5 13 -119 356 -122 370 -1 3
-5 12 -8 20 -3 8 -29 78 -57 155 -72 196 -188 483 -257 635 -102 224 -131 287
-179 380 -29 58 -54 110 -54 115 -1 6 -5 15 -10 20 -4 6 -25 42 -45 80 -31 58
-131 236 -165 295 -123 209 -158 265 -250 405 -122 183 -106 161 -250 360 -55
77 -119 166 -142 198 -23 32 -50 68 -60 79 -10 12 -18 25 -18 29 0 4 -6 14
-13 21 -7 7 -35 42 -62 78 -27 36 -55 72 -62 80 -7 8 -37 47 -68 85 -90 111
-132 161 -260 305 -150 169 -122 139 -310 330 -234 237 -447 430 -650 589 -44
34 -87 68 -96 75 -24 20 -131 99 -156 116 -56 39 -299 214 -303 220 -3 4 -84
59 -180 122 -333 220 -614 367 -950 498 -74 28 -144 56 -155 60 -98 41 -441
147 -592 184 -10 3 -94 23 -188 46 -93 23 -215 52 -270 65 -55 12 -161 37
-235 55 -74 18 -142 33 -150 35 -8 2 -60 12 -115 24 -55 11 -113 23 -130 26
-102 19 -200 36 -228 39 -17 3 -45 7 -62 10 -16 2 -52 7 -80 10 -27 4 -61 8
-75 11 -14 2 -52 7 -85 10 -33 3 -78 7 -100 10 -64 8 -150 15 -238 20 -45 3
-116 8 -157 11 -78 6 -1027 14 -1032 9z m467 -6299 c44 -4 91 -8 105 -10 14
-3 48 -7 77 -10 63 -7 108 -22 271 -88 194 -79 500 -236 582 -300 123 -96 368
-354 423 -446 77 -128 102 -176 175 -322 79 -160 100 -205 147 -325 15 -38 33
-83 40 -100 21 -48 112 -325 129 -390 8 -33 18 -82 21 -110 4 -27 8 -59 10
-70 32 -219 39 -337 40 -640 0 -279 -6 -389 -30 -545 -2 -14 -7 -45 -10 -70
-3 -25 -11 -63 -17 -85 -27 -105 -139 -407 -160 -432 -6 -7 -8 -13 -4 -13 8 0
-109 -232 -173 -344 -42 -72 -137 -194 -231 -297 -134 -146 -388 -390 -513
-492 -22 -18 -53 -44 -70 -60 -18 -15 -75 -60 -127 -100 -52 -39 -97 -75 -100
-78 -11 -13 -283 -191 -432 -282 -166 -102 -176 -108 -303 -177 -44 -24 -81
-48 -83 -52 -2 -4 -12 -8 -22 -8 -10 0 -21 -4 -24 -9 -14 -21 -514 -254 -756
-351 -194 -78 -500 -190 -685 -250 -206 -67 -181 -66 -200 -7 -9 29 -21 61
-26 72 -10 22 -110 294 -114 310 -1 6 -5 17 -8 25 -4 8 -44 119 -91 245 -46
127 -100 273 -119 325 -19 52 -49 136 -67 185 -17 50 -35 99 -40 110 -5 11
-21 54 -36 95 -14 41 -41 116 -59 165 -18 50 -101 275 -183 500 -204 557 -374
1023 -432 1180 -26 72 -69 189 -95 260 -26 72 -64 177 -85 235 -33 89 -149
406 -247 675 -14 39 -31 86 -39 105 -7 19 -38 103 -68 185 -30 83 -111 305
-181 494 -69 189 -125 345 -123 346 6 4 180 85 184 85 2 0 34 14 71 31 166 77
639 260 918 355 175 61 460 154 482 159 10 2 45 13 78 24 80 26 342 100 380
107 17 3 48 9 70 14 22 5 54 11 70 14 17 3 39 8 51 10 53 11 384 66 424 71 25
3 72 10 105 15 33 5 83 12 110 15 28 3 70 8 95 11 25 4 56 8 70 9 60 6 167 18
195 21 17 2 75 7 130 10 55 4 101 7 102 8 5 4 330 -3 398 -8z"/>
</g>
</svg>
